<mxfile host="app.diagrams.net" modified="2023-09-15T13:49:02.056Z" agent="Mozilla/5.0 (Windows NT 10.0; Win64; x64) AppleWebKit/537.36 (KHTML, like Gecko) Chrome/116.0.0.0 Safari/537.36 Edg/116.0.1938.81" version="21.7.5" etag="pAum6wA1PzLTYSXwZL_E" type="github">
  <diagram name="Page-1" id="EVmTcV6VWXpZU2fVbqZk">
    <mxGraphModel>
      <root>
        <mxCell id="0" />
        <mxCell id="1" parent="0" />
      </root>
    </mxGraphModel>
  </diagram>
</mxfile>
